<mxfile host="app.diagrams.net" modified="2023-05-26T06:52:10.974Z" agent="Mozilla/5.0 (Windows NT 10.0; Win64; x64) AppleWebKit/537.36 (KHTML, like Gecko) Chrome/113.0.0.0 Safari/537.36" version="21.3.4" etag="dvFQdovTyPqi2-GkEb3g" type="github">
  <diagram name="Страница 1" id="3nE3i9kwlkzReV_NKIEf">
    <mxGraphModel>
      <root>
        <mxCell id="0" />
        <mxCell id="1" parent="0" />
      </root>
    </mxGraphModel>
  </diagram>
</mxfile>
